<?xml version="1.0" encoding="UTF-8"?>
<svg id="Layer_2" data-name="Layer 2" xmlns="http://www.w3.org/2000/svg" viewBox="0 0 71.08 49.42">
  <defs>
    <style>
      .cls-1 {
        fill: #fff;
        stroke-width: 0px;
      }
    </style>
  </defs>
  <g id="Layer_4" data-name="Layer 4">
    <g>
      <path class="cls-1" d="m.3,21.36l11.91,11.47V11.74h7.51c3.54,0,6.41,2.76,6.41,6.18v13.72c0,3.41-2.87,6.18-6.41,6.18l-19.7-.02v11.62s16.73,0,20.63,0c11.59,0,18.06-3.21,18.06-25.66C38.7,3.75,33.07,0,20.64,0-.05,0,.44,0,.44,0l-.14,21.36Z"/>
      <path class="cls-1" d="m56.74,49.42v-27.5l-8.78,10.63-9.28-10.47-6.28,22.24-9.07,5.1,9.83-24.69-6.52-16.79L17.69.03h21.15l8.92,10.43L55.99.03h15.09v49.38h-14.33ZM26.65,7.94L21.06,0l17.78.03m-12.19,7.9L20.96,0l17.88.03"/>
    </g>
  </g>
</svg>