<?xml version="1.0" encoding="utf-8"?>
<!-- Generator: Adobe Illustrator 27.8.1, SVG Export Plug-In . SVG Version: 6.00 Build 0)  -->
<svg version="1.1" id="Layer_2" xmlns="http://www.w3.org/2000/svg" xmlns:xlink="http://www.w3.org/1999/xlink" x="0px" y="0px"
	 viewBox="0 0 16 16" style="enable-background:new 0 0 16 16;" xml:space="preserve">
<style type="text/css">
	.st0{fill:#FFFFFF;}
</style>
<g id="Layer_4">
	<g>
		<path class="st0" d="M0.2,8l2.6,2.5V5.9h1.7c0.8,0,1.4,0.6,1.4,1.4v3c0,0.8-0.6,1.4-1.4,1.4l-4.4,0v2.6c0,0,3.7,0,4.6,0
			c2.6,0,4-0.7,4-5.7c0-4.4-1.2-5.3-4-5.3c-4.6,0-4.5,0-4.5,0L0.2,8z"/>
		<path class="st0" d="M12.7,14.2V8.1l-1.9,2.4L8.7,8.2l-1.4,4.9l-2,1.1l2.2-5.5L6,5L4,3.3h4.7l2,2.3l1.8-2.3h3.3v10.9L12.7,14.2
			L12.7,14.2z M6,5L4.8,3.3l3.9,0 M6,5L4.8,3.3l4,0"/>
	</g>
</g>
</svg>
